<svg t="1653106088865" class="icon" viewBox="0 0 1024 1024" version="1.1" xmlns="http://www.w3.org/2000/svg" p-id="11560" width="200" height="200"><path d="M951.737186 488.212224 802.424532 301.56936c-7.222495-9.027607-18.034748-14.011108-29.157064-14.011108-4.131087 0-8.300037 0.688685-12.349259 2.106987-14.957667 5.246491-24.970718 19.371186-24.970718 35.223223l0 111.98756-298.631448 0c-41.232077 0-74.656327 33.42425-74.656327 74.656327 0 41.2331 33.42425 74.656327 74.656327 74.656327l298.631448 0 0 111.98756c0 15.852036 10.013051 29.977755 24.970718 35.223223 4.049223 1.424442 8.218172 2.108011 12.349259 2.108011 11.123338 0 21.934568-4.978385 29.157064-14.013155l149.311631-186.643887C962.64563 521.221012 962.64563 501.848803 951.737186 488.212224L951.737186 488.212224zM586.628698 810.162774 362.66074 810.162774l-74.656327 0 0-0.011256c-0.199545 0-0.393973 0.011256-0.587378 0.011256-40.906665 0-74.076112-33.42425-74.076112-74.656327l0-74.656327 0-298.631448 0-74.656327 0.011256 0c0-0.199545-0.011256-0.393973-0.011256-0.587378 0-40.906665 33.429367-74.076112 74.66349-74.076112l74.656327 0 223.967958 0c41.2331 0 74.66349-33.422204 74.66349-74.656327 0-41.232077-33.429367-74.656327-74.66349-74.656327L213.340923 63.586201c-82.459037 0-149.311631 66.853617-149.311631 149.311631l0 597.262896c0 82.4662 66.853617 149.311631 149.311631 149.311631l373.286752 0c41.2331 0 74.66349-33.422204 74.66349-74.656327C661.291165 843.586001 627.861798 810.162774 586.628698 810.162774L586.628698 810.162774zM586.628698 810.162774" p-id="11561"></path></svg>