<svg t="1653105880740" class="icon" viewBox="0 0 1024 1024" version="1.1" xmlns="http://www.w3.org/2000/svg" p-id="4339" width="200" height="200"><path d="M512 85.333333a256 256 0 1 1 0 512 256 256 0 0 1 0-512z m0 85.333334a170.666667 170.666667 0 1 0 0 341.333333 170.666667 170.666667 0 0 0 0-341.333333z" p-id="4340"></path><path d="M512 558.762667c190.72 0 351.146667 142.592 376.746667 331.562666a42.666667 42.666667 0 0 1-84.608 11.434667c-19.882667-146.944-144.426667-257.664-292.138667-257.664-147.754667 0-272.298667 110.762667-292.138667 257.749333a42.666667 42.666667 0 1 1-84.565333-11.392c25.514667-189.013333 185.941333-331.690667 376.704-331.690666z" p-id="4341"></path></svg>