<svg t="1653057619410" class="icon" viewBox="0 0 1024 1024" version="1.1" xmlns="http://www.w3.org/2000/svg" p-id="11218" width="200" height="200"><path d="M512 42.666667C252.8 42.666667 29.12 253.173333 42.666667 512c18.453333 353.013333 429.546667 149.333333 466.666666 426.666667a47.04 47.04 0 0 0 51.573334 40.213333A469.333333 469.333333 0 0 0 512 42.666667z m92.053333 853.333333a26.666667 26.666667 0 0 1-32-17.973333 234.666667 234.666667 0 0 0-83.52-119.786667c-53.333333-40.373333-117.866667-56.32-180.106666-71.786667-124.426667-30.826667-184.533333-51.253333-191.093334-178.346666-5.333333-97.12 30.4-191.04 100.16-264.533334A407.68 407.68 0 0 1 512 117.333333a394.666667 394.666667 0 0 1 92.053333 778.666667z" p-id="11219"></path><path d="M669.44 737.173333m-72 0a72 72 0 1 0 144 0 72 72 0 1 0-144 0Z" p-id="11220"></path><path d="M785.92 458.773333m-58.666667 0a58.666667 58.666667 0 1 0 117.333334 0 58.666667 58.666667 0 1 0-117.333334 0Z" p-id="11221"></path><path d="M731.146667 347.466667a58.666667 58.666667 0 1 0-82.346667-10.08 58.666667 58.666667 0 0 0 82.346667 10.08z" p-id="11222"></path><path d="M526.397092 233.08818m-50.287148 30.215567a58.666667 58.666667 0 1 0 100.574296-60.431134 58.666667 58.666667 0 1 0-100.574296 60.431134Z" p-id="11223"></path><path d="M327.68 229.333333A58.666667 58.666667 0 1 0 405.333333 259.253333 58.666667 58.666667 0 0 0 327.68 229.333333z" p-id="11224"></path></svg>